# xmcd CD database file
#
# Track frame offsets:
#	182
#	37482
#	64267
#	92912
#	120642
#	169387
#	207647
#
# Disc length: 3116 seconds
#
# Revision: 0
# Processed by: cddbd v1.5.2PL0 Copyright (c) Steve Scherf et al.
# Submitted via: CDex 1.51
#
DISCID=700c2a07
DTITLE=Matheran - Matheran
DYEAR=1993
DGENRE=Jazz
TTITLE0=Toninho
TTITLE1=Matheran
TTITLE2=Tree People
TTITLE3=Olivia
TTITLE4=Red Moon
TTITLE5=High Water
TTITLE6=Highland
EXTD=YEAR: 1993
EXTT0=
EXTT1=
EXTT2=
EXTT3=
EXTT4=
EXTT5=
EXTT6=
PLAYORDER=
